<?xml version="1.0" encoding="utf-8"?>
<!-- Generator: Adobe Illustrator 24.1.1, SVG Export Plug-In . SVG Version: 6.00 Build 0)  -->
<svg version="1.1" id="Layer_1" xmlns="http://www.w3.org/2000/svg" xmlns:xlink="http://www.w3.org/1999/xlink" x="0px" y="0px"
	 viewBox="0 0 512 512" style="enable-background:new 0 0 512 512;" xml:space="preserve">
<style type="text/css">
	.st0{fill:#EA6618;}
	.st1{fill:#D65813;}
	.st2{fill:#E05E11;}
	.st3{fill:#DE5C16;}
	.st4{fill:#FFFFFF;}
</style>
<g>
	<path class="st0" d="M512,472.8V39.2c0-17.8-11.8-32.8-28.1-37.6l-18.4,11L261,230.7l-6.4,20l-3.7,19.2l63.8,238.4l9.9,3.6h148.3
		C494.4,512,512,494.4,512,472.8"/>
	<path class="st1" d="M0,39.2v433.6c0,13.4,6.7,25.2,17,32.3l12.6-6l216.5-231.8l8.5-16.5l0.3-16L196,10.6L187,0H39.2
		C17.6,0,0,17.6,0,39.2"/>
	<path class="st2" d="M254.6,250.8L483.9,1.6c-3.5-1-7.3-1.6-11.1-1.6H187L254.6,250.8z"/>
	<path class="st3" d="M39.2,512h285.2l-69.9-261.2L17,505.1C23.3,509.4,31,512,39.2,512"/>
	<path class="st4" d="M189.8,194.1h28.5c11.3,42.8,24.2,80.3,38.6,114.2c16.3-38.1,28.3-75.7,38.4-114.2h26.9
		c-12,47.9-31.7,96.1-54.3,145.9h-23.8C222.5,292.7,204.1,244.2,189.8,194.1z M96,119.9h63.3v271.3H95.7v-20.9h38.9v-230H96V119.9z
		 M416.3,140.3h-38.7v230h38.9v20.9h-63.5V119.9h63.3V140.3z"/>
</g>
</svg>
